<svg viewBox="0 0 96 96" xmlns="http://www.w3.org/2000/svg" xmlns:xlink="http://www.w3.org/1999/xlink" id="Icons_LightsOn" overflow="hidden"><path d="M56.471 74.792 39.26 74.792C37.6683 74.792 36.378 76.0823 36.378 77.674 36.378 79.2657 37.6683 80.556 39.26 80.556L56.471 80.556C58.0627 80.556 59.353 79.2657 59.353 77.674 59.353 76.0823 58.0627 74.792 56.471 74.792Z" fill="#FFC000"/><path d="M47.866 90.328C51.1343 90.3276 53.8528 87.8142 54.109 84.556L41.622 84.556C41.8783 87.8146 44.5974 90.3281 47.866 90.328Z" fill="#FFC000"/><path d="M72.839 44.474 72.839 43.61C72.5897 29.9692 61.5087 19.0156 47.866 18.924L47.866 18.924C34.2223 19.0145 23.1398 29.9683 22.89 43.61L22.89 44.474C22.9832 47.4325 23.571 50.3546 24.629 53.119 25.6414 55.7278 27.1115 58.1349 28.97 60.227 31.256 62.727 33.763 67.575 34.82 69.727 35.144 70.38 35.81 70.793 36.539 70.793L59.19 70.793C59.9191 70.7927 60.5853 70.3798 60.91 69.727 61.966 67.576 64.473 62.727 66.759 60.227 68.6175 58.1349 70.0876 55.7278 71.1 53.119 72.1576 50.3544 72.7453 47.4325 72.839 44.474ZM67.076 44.374C66.9891 46.6763 66.5243 48.9486 65.7 51.1 64.938 53.0389 63.8387 54.8275 62.453 56.383 60.2514 59.0369 58.3658 61.9377 56.834 65.027L38.892 65.027C37.3606 61.9375 35.4749 59.0367 33.273 56.383 31.8872 54.8277 30.7882 53.039 30.027 51.1 29.2032 48.9492 28.739 46.6775 28.653 44.376L28.653 43.656C28.8471 33.167 37.3734 24.7482 47.864 24.687L47.864 24.687C58.3554 24.7477 66.882 33.1682 67.074 43.658Z" fill="#FFC000"/><path d="M48.062 15C49.1666 15 50.062 14.1046 50.062 13L50.062 6C50.062 4.89543 49.1666 4 48.062 4 46.9574 4 46.062 4.89543 46.062 6L46.062 13C46.062 14.1046 46.9574 15 48.062 15Z" fill="#FFC000"/><path d="M24.326 23.8C25.0934 24.5945 26.3595 24.6165 27.154 23.8492 27.9485 23.0818 27.9705 21.8157 27.2032 21.0212 27.1871 21.0045 27.1707 20.9881 27.154 20.972L22.2 16.018C21.4055 15.2506 20.1394 15.2726 19.372 16.0672 18.6234 16.8422 18.6234 18.071 19.372 18.846Z" fill="#FFC000"/><path d="M70.411 24.761C70.9414 24.7609 71.45 24.5501 71.825 24.175L76.774 19.225C77.5253 18.4153 77.4779 17.1498 76.6681 16.3986 75.9003 15.6862 74.713 15.6868 73.946 16.4L69 21.347C68.2191 22.1282 68.2193 23.3945 69.0004 24.1754 69.3754 24.5503 69.8838 24.7609 70.414 24.761Z" fill="#FFC000"/><path d="M17 41.5 10 41.5C8.89543 41.5 8 42.3954 8 43.5 8 44.6046 8.89543 45.5 10 45.5L17 45.5C18.1046 45.5 19 44.6046 19 43.5 19 42.3954 18.1046 41.5 17 41.5Z" fill="#FFC000"/><path d="M24.326 63.136 19.376 68.086C18.5627 68.8335 18.5094 70.0987 19.2569 70.9119 20.0043 71.7252 21.2695 71.7785 22.0828 71.0311 22.1235 70.9937 22.1626 70.9546 22.2 70.914L27.15 65.964C27.9445 65.1966 27.9665 63.9305 27.1992 63.136 26.4318 62.3415 25.1657 62.3195 24.3712 63.0868 24.3545 63.1029 24.3381 63.1193 24.322 63.136Z" fill="#FFC000"/><path d="M71.825 62.757C71.0729 61.9481 69.8074 61.902 68.9984 62.6541 68.1895 63.4062 68.1434 64.6717 68.8956 65.4807 68.9291 65.5167 68.9639 65.5515 69 65.585L73.949 70.534C74.7435 71.3014 76.0096 71.2794 76.777 70.4848 77.5256 69.7098 77.5256 68.481 76.777 67.706Z" fill="#FFC000"/><path d="M85.75 41.432 78.75 41.432C77.6454 41.432 76.75 42.3274 76.75 43.432 76.75 44.5366 77.6454 45.432 78.75 45.432L85.75 45.432C86.8546 45.432 87.75 44.5366 87.75 43.432 87.75 42.3274 86.8546 41.432 85.75 41.432Z" fill="#FFC000"/></svg>