<svg viewBox="0 0 486.463 486.463" xmlns="http://www.w3.org/2000/svg" xmlns:xlink="http://www.w3.org/1999/xlink" id="Capa_1" overflow="hidden"><g><g><path d="M243.225 333.382C229.625 333.382 218.225 344.782 218.225 358.382 218.225 371.982 229.625 383.382 243.225 383.382 256.325 383.382 268.225 371.982 267.625 358.982 268.225 344.682 256.925 333.382 243.225 333.382Z" fill="#FFC000"/><path d="M474.625 421.982C490.325 394.882 490.425 362.582 474.825 335.582L318.225 64.382C302.725 37.082 274.725 20.882 243.325 20.882 211.925 20.882 183.925 37.182 168.425 64.282L11.625 335.782C-3.975 363.082-3.875 395.582 11.925 422.682 27.525 449.482 55.425 465.582 86.625 465.582L399.425 465.582C430.725 465.582 458.825 449.282 474.625 421.982ZM440.625 402.382C431.925 417.382 416.525 426.282 399.325 426.282L86.525 426.282C69.525 426.282 54.225 417.582 45.725 402.882 37.125 387.982 37.025 370.182 45.625 355.182L202.425 83.782C210.925 68.882 226.125 60.082 243.325 60.082 260.425 60.082 275.725 68.982 284.225 83.882L440.925 355.282C449.325 369.882 449.225 387.482 440.625 402.382Z" fill="#FFC000"/><path d="M237.025 157.882C225.125 161.282 217.725 172.082 217.725 185.182 218.325 193.082 218.825 201.082 219.425 208.982 221.125 239.082 222.825 268.582 224.525 298.682 225.125 308.882 233.025 316.282 243.225 316.282 253.425 316.282 261.425 308.382 261.925 298.082 261.925 291.882 261.925 286.182 262.525 279.882 263.625 260.582 264.825 241.282 265.925 221.982 266.525 209.482 267.625 196.982 268.225 184.482 268.225 179.982 267.625 175.982 265.925 171.982 260.825 160.782 248.925 155.082 237.025 157.882Z" fill="#FFC000"/></g></g><g></g><g></g><g></g><g></g><g></g><g></g><g></g><g></g><g></g><g></g><g></g><g></g><g></g><g></g><g></g></svg>